<?xml version="1.0" encoding="UTF-8"?>
<svg id="Layer_1" data-name="Layer 1" xmlns="http://www.w3.org/2000/svg" viewBox="0 0 470.9 136.26">
  <defs>
    <style>
      .cls-1 {
        fill: #fff;
      }
    </style>
  </defs>
  <path class="cls-1" d="M30.6,84.85c-.12.68-.23,1.37-.35,2.04.19-.01.38-.01.57-.03.07-.69.12-1.37.19-2.04-.14.01-.27.01-.41.03Z"/>
  <path class="cls-1" d="M29.75,76.93l-1.83,4.1c-.07,0-.14,0-.2.01-.03-.2-.12-.41-.05-.58.2-.54.41-1.08.72-1.6,1.45-2.32,2.25-4.74,2.34-7.1-.27.27-.56.53-.83.77-1,2.21-1.99,4.41-2.99,6.62-.08,0-.16-.01-.24-.01.01-.14.01-.27.03-.41.09-1.04,1.26-2.11.45-3.16-.09-.11-.04-.32.07-.56-1.76,1.61-3.58,3.16-5.43,4.64-1.33,1.06-2.8,1.94-4.21,2.91-2.15,1.5-4.29,3.03-6.45,4.52-.88.62-1.33.18-1.57-.68-.14-.45-.31-.88-.46-1.29-1.27,1.31-2.32,2.55-3.52,3.59-.46.39-1.29.34-1.95.53-.39.11-.85.18-1.16.42-.62.47-1.16,1.06-1.75,1.58-.15-.07-.31-.14-.47-.19-.07,1.76-.37,3.56-.15,5.29.15,1.3.62,3.06,1.56,3.67,1.38.88,2.46,2.59,4.46,2.4.15-.01.38.19.46.35.91,1.61,2.37,1.44,3.71.98,2.27-.8,4.48-1.75,6.69-2.71.45-.19.88-.39,1.31-.62.01-.49.05-.99.18-1.48.28-1.12.88-2.25,1.37-3.36.41-.93.88-1.84,1.48-2.76-.22,1.48-.46,2.95-.69,4.41.15.03.3.04.43.07.18-.31.43-.61.5-.91.62-2.61,1.21-5.21,1.81-7.81.03-.14.04-.31.14-.41,1.56-1.35.74-3.17,2.44-4.62,0,.24.03.42,0,.6-.3,1.63-.64,3.24-.88,4.86-.19,1.21-.28,2.4-.32,3.59-.03.41.24.79.42,1.3-.45.79-.65,1.63-.58,2.51.45-.34.91-.69,1.35-1.04.18-.92.34-1.84.5-2.76.3-1.84.7-3.63,1.53-5.47.69-1.56.57-3.24.83-4.88.03-.19.16-.38.22-.57.45-1.38.89-2.75,1.3-4.13.05-.2-.09-.41-.15-.62-.12,0-.26-.01-.38-.03ZM27.03,86.72c-.87-.7-.47-2.78.37-3.72.14.01.27.01.39.01-.24,1.23-.5,2.48-.76,3.71Z"/>
  <path class="cls-1" d="M179.12,55.08c-.09.14-.19.28-.28.43.39.34.8.68,1.21,1.02l.49-.77c-.47-.23-.95-.45-1.41-.68ZM178.05,55.82c-.08.15-.18.28-.26.42.46.54.99.97,1.54,1.37.18-.26.34-.51.49-.77l-1.77-1.02ZM177.98,57.84c-.05.11-.11.22-.18.34.2.28.42.54.65.79.16-.24.32-.49.49-.74-.33-.12-.64-.26-.96-.38ZM129.05,60.19c-.15.01-.28.03-.43.04-.04.68-.08,1.35-.14,2.03.34-.28.66-.58,1-.91-.12-.38-.33-.79-.43-1.16Z"/>
  <path class="cls-1" d="M187.54,41.13c-.04.15-.05.3-.11.42-.89,2.02-1.73,4.08-2.64,6.11-.14-.14-.26-.28-.37-.45-.35-.5-.66-1.03-.99-1.56.24-.27.49-.53.72-.8.15-.18.42-.34.45-.54.24-1.71,1.88-2.15,2.94-3.18Z"/>
  <path class="cls-1" d="M177.03,61.16c-.23.35-.46.72-.69,1.07-.19.3-.39.61-.58.92-.26-.16-.51-.35-.77-.53-.23-.16-.41-.41-.6-.64-.39-.49-.74-1-1.15-1.46-.37-.41-.81-.69-1.12-1.11-1.06-1.39-2.09-2.8-3.09-4.24-.23-.32-.28-.81-.42-1.22.12-.11.23-.24.35-.37,2.1,3.44,4.81,5.93,8.07,7.57Z"/>
  <path class="cls-1" d="M137.42,79.55c-.31.46-.46,1.04-.64,1.57-.15.43-.16.89-.24,1.35-.14-.03-.26-.04-.39-.05.09-.79.05-1.63.32-2.36.07-.16.12-.34.2-.5.07.11.14.23.2.34-.05-.16-.09-.32-.15-.49.07-.2.15-.41.24-.61.15.24.3.5.45.74Z"/>
  <path class="cls-1" d="M431.02,132.25c-.31-.11-.62-.16-.93-.14-.37.03-.73.08-1.07.18-4.47,1.23-9.01,1.19-13.57.84-.35-.03-.69-.15-1.04-.26-.72-.2-1.42-.46-2.14-.65-.62-.16-1.29-.19-1.88-.38-1.99-.65-3.97-1.33-5.93-2.03-.43-.16-.79-.53-1.18-.8.04-.15.09-.31.15-.46,6.04,2.55,12.26,3.05,18.61,1.83-.69-.07-1.38-.12-2.07-.18v-.33c2.34-.38,4.67-.77,7-1.15,0-.12-.01-.24-.01-.37-3.74.07-7.52,1.11-11.19-.18-.01-.14-.03-.24-.03-.37,1.8-.2,3.62-.39,5.43-.58-2.21-.23-4.46-.04-6.61-.64,0-.15.01-.3.01-.45h3.67c0-.07,0-.14-.01-.2-1-.14-2-.28-3.01-.42.01-.18.03-.34.04-.5,1.9-.09,3.79-.19,5.81-.28-.53-.64-.76-1.22-1.15-1.35-1.33-.46-2.71-.73-4.05-1.12-2.49-.76-4.97-1.56-7.46-2.3-1.52-.45-3.05-.88-4.58-1.25-.79-.18-1.65-.07-2.42-.28-1.15-.34-2.26-.81-3.34-1.31-.58-.27-1.06-.73-1.38-.95-4.35-.93-7.98-3.3-11.98-4.77.37.6.65,1.11.99,1.58.16.24.39.57.65.64,2.4.72,3.24,2.93,4.55,4.67.03.03-.05.12-.09.23-.93-.51-1.91-.93-2.75-1.56-.91-.68-2.04-1.39-2.44-2.36-.58-1.38-1.83-1.48-2.84-2.07.88,1.02,1.77,2.02,2.65,3.03-.11.14-.22.27-.31.39-.46-.16-.96-.28-1.39-.49-2.32-1.12-4.58-2.4-6.95-3.39-3.51-1.46-7.11-2.68-10.63-4.12-1.44-.58-2.78-1.42-4.12-2.19-1.76-1.03-3.17-2.61-5.21-3.16-1.64-.42-3.25-.91-4.89-1.33-3.72-.99-7.45-1.95-11.19-2.91-1.39-.37-2.8-.72-4.21-1.07.03-.15.05-.28.07-.43.8.07,1.67-.05,2.38.2,1.86.69,3.7,1.29,5.67,1.5.87.09,1.69.61,2.56.87.49.14,1.03.15,1.54.2.42.05.87.07,1.29.18,2.04.56,4.08,1.18,6.13,1.69,1.08.27,2.21.38,3.32.56-.81-.65-1.68-1.14-2.61-1.45-2.18-.72-4.39-1.3-6.55-2.03-.56-.19-.99-.76-1.48-1.12-.45-.34-.85-.84-1.35-.96-4.54-1.1-9.09-2.13-13.64-3.18-1.64-.39-3.26-.88-4.92-1.21-.7-.14-1.52.18-2.23.05-2.13-.38-4.24-.95-6.36-1.3-1.73-.27-3.51-.41-5.25-.53-2.25-.18-4.51-.39-6.77-.38-2.18,0-4.32-.47-6.54-.39-4.5.18-9.02-.05-13.54-.07-1.77-.01-3.56-.01-5.31.19-2.32.27-4.6.89-6.92,1.12-3.16.31-6.32.41-9.48.58-.84.05-1.68.12-2.52.11-1.6-.05-3.22-.37-4.79-.19-4.17.45-8.3,1.11-12.44,1.68-3.98.54-7.96,1.06-11.93,1.61-2.71.38-5.4.91-8.11,1.21-5.48.6-10.98,1.11-16.48,1.64-1.48.15-3.05.57-4.44.26-1.46-.31-2.69.2-4.04.32-1.03.09-2.07.12-3.11.18,2.97-1.87,6.15-2.52,9.32-2.28.39-.27.66-.62.97-.66.93-.12,1.9-.05,2.82-.19,1.64-.26,3.25-.68,4.87-.91,3.53-.49,7.1-.85,10.63-1.37,4.75-.7,9.47-1.48,14.21-2.25,5.13-.83,10.24-1.86,15.38-2.48,9.45-1.14,18.95-1.83,28.47-1.94,4.71-.04,9.43-.2,14.12.01,5.63.27,11.27.7,16.85,1.39,5.47.68,10.9,1.75,16.34,2.69,1.34.24,2.64.7,3.95,1.07-.01.07-.01.14-.04.2-.85-.07-1.71-.15-2.56-.23,0,.09-.01.19-.01.27,6.08,1.42,12.17,2.83,18.16,4.23-.2-.16-.5-.56-.88-.68-2.3-.68-4.62-1.33-6.95-1.94-1.16-.32-2.36-.53-3.52-.85-.24-.07-.41-.38-.61-.57.26-.12.56-.39.79-.35,1.65.3,3.33.54,4.94,1,2.23.65,4.4,1.52,6.62,2.23.41.14.91.03,1.58.03-.57-.41-.93-.68-1.49-1.06.53-.31.87-.5,1.22-.7-.04-.07-.15-.18-.15-.28-.07-.85-.04-1.8-1.27-.74-.09.09-.56-.18-.83-.34-.28-.18-.5-.51-.81-.62-1.19-.46-2.38-1.1-3.62-1.21-1.11-.11-2.42-1.15-3.47.24-1.34-.47-2.71-.91-4.02-1.45-.27-.11-.31-.83-.57-.89-.95-.3-1.95-.45-2.92-.6-.12-.03-.27.26-.47.47,1.39.05,2.72-.14,3.74,1.35-.7,0-1.21.08-1.67-.01-1.84-.39-3.67-.83-5.5-1.29-1.12-.28-2.48-.34-3.28-1.03-1.42-1.21-3.22-1.26-4.75-2.06-.12-.07-.34.04-.84.12,1.06.57,1.84,1,2.63,1.44-.04.09-.08.19-.12.28-.54-.07-1.1-.16-1.64-.19-1.75-.11-3.36-.91-5.17-.76-.83.07-1.98-.27-2.52-.85-1.33-1.44-2.95-.93-4.51-1.12.83.38,1.96.2,2.41,1.58-.66-.12-1.12-.23-1.58-.3-.6-.07-1.19-.16-1.79-.18-1.54-.05-3.1-.04-4.64-.11-.38-.01-.74-.34-1.12-.35-2.25-.09-4.5-.16-6.73-.16-3.43,0-6.85.07-10.26.09-1.45.01-2.9-.03-4.35,0-2.17.05-4.33.18-6.5.24-2.57.07-5.21-.31-7.68.22-5.01,1.08-10.17.51-15.13,1.71-1.18.28-2.38.49-3.56.73-.01,0-.03-.01-.04-.01-.6.04-1.19.01-1.77.11-2.6.37-5.2.77-7.81,1.16.19-.34.43-.5.7-.58,1.4-.42,2.79-.84,4.18-1.25-2.04-.27-3.87-.34-5.46-.3-1.5.49-3.02.97-4.52,1.45-2.94.93-5.93,1.72-8.91,2.56-.34.09-.72.08-1.08.12-.03-.11-.05-.2-.07-.31.95-.31,1.91-.64,2.86-.93,1.99-.6,3.87-1.41,5.73-2.29-2.6.43-5.59,1.04-8.38,1.57-1.58.64-3.18,1.27-4.77,1.9-.79.31-1.72.28-2.57.42-.05-.14-.09-.26-.14-.38,1.02-.39,2.03-.79,3.05-1.16,3.16-1.22,6.31-2.42,9.47-3.63-.01-.09-.04-.2-.07-.3-.39.09-.81.14-1.21.28-3.43,1.29-6.84,2.63-10.28,3.89-.01,0-.03.01-.04.01-.03,0-.05.01-.07.01-1.29.49-2.57.93-3.89,1.39-1.67.56-3.56.42-5.35.61-.24.03-.5.09-.74.14v.32h2.65c-1.19.87-4.05,1.22-6.03.62.83-.15,1.64-.28,2.46-.43-.03-.15-.04-.28-.05-.42-2.72.32-5.44.66-8.37,1.03-1.6.56-3.72.76-6.64.31-.26.11-.56.16-.95.18-3.14.04-6.28.24-9.43.27-4.41.04-8.84-.3-13.04-1.65-4.16-1.35-6.54-4.96-9.18-8.14-.14-.16,0-.72.18-.96,2.1-2.8,4.24-5.58,6.35-8.37,1.69-2.25,3.43-4.47,5.06-6.76.74-1.03,1.44-2.1,2.11-3.17-1.22-.7-2.38-1.48-3.55-2.29-.09.09-.2.2-.31.3.19.5.38,1,.6,1.61-.23-.12-.46-.2-.62-.37-2.06-2.18-4.13-4.37-6.19-6.57-.08-.09-.23-.24-.19-.35.57-1.69-.74-2.21-1.1-3.3-.2-.64-1.04-.85-1.58-1.25-.12.14-.26.27-.38.41.46.87.93,1.72,1.38,2.61.73,1.48,1.46,2.97,2.14,4.51.12.27-.05.79-.11,1.18-.08.01-.18.03-.26.04-.49-.68-.96-1.37-1.5-2.11.84-.84.32-1.35-.07-1.9-.66-.88-1.46-1.64-1.99-2.64-.53-1.02-.81-2.26-1.18-3.43-.3-.96-.56-1.96-.7-3.05.8,1.26,1.6,2.52,2.38,3.78.12-.08.24-.16.37-.24-.07-.34-.08-.73-.22-1-1.25-2.37-2.52-4.73-3.77-7.08-.07-.12-.18-.26-.16-.39.2-1.44-.64-2.28-1.03-3.4-2.21,5.02-5.43,9.55-8.65,14.07.14.09.27.19.41.28,2.82-3.26,5.63-6.51,8.46-9.78.19.38.2.64.09.83-.99,1.76-1.92,3.53-2.99,5.24-2.95,4.66-6.38,9.02-8.6,14.12-.08.2-.18.38-.24.58h-.01c-.07.66-.14,1.31-.04,1.96.26,1.58.04,3.25.11,4.89.03.65.19,1.31.34,1.95.32,1.34.54,2.72,1.03,4.01.38.96,1.1,1.79,1.71,2.74-.68-.11-1.11-.23-1.35-1.03-.31-1-1.02-1.88-1.52-2.83-.81-1.57-1.75-3.1-2.37-4.75-.45-1.19-.45-2.53-.66-3.82-.08-.47-.19-.95-.3-1.42-.09.01-.19.04-.28.05-.19,1.88.74,3.75.24,5.82-.47-.84-.87-2.36-1.1-3.91-.2.46-.39.91-.58,1.38h0c.09,1.14.18,2.26.27,3.39.11,1.1.31,2.18.35,3.28.01.34-.34.68-.65,1.25-.58-1.27-1.12-2.49-1.68-3.68-.11.26-.2.49-.32.74h0c.11.41.2.81.3,1.21-.04.03-.09.04-.15.07l-.32-.83c-.12.31-.26.62-.39.93h0c.26.79.56,1.56.79,2.34-.34-.62-.66-1.25-.99-1.87-.19.45-.38.89-.57,1.35.16.43.35.85.56,1.27.31-.08.74-.08,1.08-.08.07,0,.19.66.22,1.03.04.62.09,1.26.11,1.9.15.32.3.64.43.96-.08.04-.18.07-.26.11-.05-.08-.09-.16-.15-.24v.41c-.03,1.75.87,2.95,2.07,4.06.95.87,1.83,1.81,2.68,2.78.28.33.69.88.57,1.14-.35.83-.05,1.34.45,1.92.11.14-.05.49-.11.8-.41-.16-.68-.27-.73-.3.7,1.45,1.44,2.99,2.19,4.52.72,1.42,1.44,2.86,2.18,4.28.09.19.28.39.47.46,2.22.8,4.52,1.42,6.15,3.2.23-.08.46-.15.68-.19-.51-.49-1.03-.97-1.5-1.52.76.5,1.52.99,2.27,1.49.01,0,.03.01.04.01.09.01.18.04.26.08.45.19.88.41,1.31.62.01-.03.04-.07.07-.09-1.33-2.98-4.36-4.16-6.68-6.09.08-.09.16-.19.24-.3,1.68.93,3.37,1.87,5.05,2.79.08-.08.16-.16.23-.24-.38-.41-.76-.83-1.14-1.25,2.6,1.31,4.79,3.03,6.57,5.17.64.2,1.26.41,1.9.6-.11-.26-.23-.5-.35-.74-.23-.47-.61-.85-.88-1.31-.3-.53-.56-1.11-.84-1.67-.14-.26-.27-.54-.46-.74-2.53-2.71-5.25-5.15-8.83-6.54-.28-.11-.54-.24-.79-.42-.2-.15-.35-.37-.47-.61,5.5,1.58,9.59,5.02,13.31,8.96.12-.07.24-.15.37-.23-.07-.53-.16-1.07-.26-1.71.2.18.42.3.54.49,1.22,1.96,2.45,3.94,3.67,5.92.54.15,1.08.28,1.64.41-.11-.42-.2-.85-.3-1.29-.05-.28.22-.74.34-1.14.09.01.18.01.27.01.34.77.66,1.53,1.04,2.37-.12.08-.23.16-.31.24.66.12,1.33.19,1.99.19,4.93.03,9.87-.35,14.79-.62,4.78-.27,9.55-.62,14.33-.93.35-.03.97-.03,1.02-.18.41-1.27,1.5-.92,2.34-1,1.56-.15,3.14-.27,4.7-.16,1.72.12,3.43.53,4.9.76,1.23-2.29,3.48-.6,4.6-1.9.93.84,2.95.85,4.28.32,1.37-.53,2.78-1.03,4.22-1.26,4.13-.64,8.29-1.12,12.44-1.65.37-.05.77.09,1.15.09.65,0,1.46.19,1.92-.11.89-.62,1.77-.64,2.75-.53,1.1.12,2.23.45,3.29.26,2.38-.41,4.71-1.11,7.07-1.63.64-.14,1.31.01,1.96-.01,1.57-.07,3.13.39,4.67-.66.81-.56,2.18-.31,3.3-.37,2.33-.12,4.66-.2,6.99-.27,3.75-.11,7.49-.19,11.23-.27,1.75-.03,3.48,0,5.23,0-1.58-.54-2.38-.56-3.79-.39-.3.04-.62-.28-.95-.45.3-.2.6-.57.91-.57,2.45-.01,4.92-.03,7.35.09,4.36.23,8.71.49,13.04.84,3.21.27,6.42.64,9.6,1.08,3.34.47,6.66,1.11,9.98,1.64,1.75.28,3.52.42,5.25.73,1.75.32,3.45.77,5.17,1.19,1.92.45,3.82.93,5.74,1.39,4.55,1.1,8.64,3.66,13.39,4.21,1.96.23,3.82,1.31,5.76,1.8,1.92.47,3.45,1.71,5.38,2.23,2.88.8,5.57,2.32,7.8,4.43.47.45,1.03.79,1.57,1.14.19.11.46.09.7.14.03-.07.04-.12.07-.19-1.35-.96-2.71-1.92-4.05-2.88.07-.12.12-.23.19-.34.26.01.57-.05.79.07,1.45.79,2.87,1.6,4.29,2.42.2.11.38.28.58.37,1.8.73,3.83,1.15,5.36,2.25,1.83,1.3,3.75,2.21,5.77,3.06,3.51,1.46,6.96,3.03,10.43,4.59.26.11.43.38.69.62-1.44.49-3.34-.2-4.43-1.35-.42-.43-1.12-.83-1.72-.87-1.58-.08-2.95-.58-3.95-1.46-.69,0-1.23.11-1.71-.03-1.37-.41-2.72-.87-4.06-1.41-1.79-.72-3.55-1.52-5.32-2.28-.19-.08-.42-.12-.7-.19,1.02,1.95,3.48,1.79,4.41,3.59.07.12.27.18.42.24,2.8,1.34,5.59,2.68,8.38,4.04.32.16.58.47.87.72-.08.12-.16.24-.24.37-1.62-.66-3.25-1.31-4.88-1.98.81.81,1.69,1.52,2.61,2.17,1.11.79,2.17,1.67,3.39,2.25,1.16.58,2.49.83,3.74,1.23.76.26,1.63.45,1.25,1.52,1.04.37,1.96.69,2.9,1.03.09-.05.18-.11.27-.15-.2-.35-.31-.85-.61-1.02-1.67-.95-3.37-1.81-5.08-2.69-1.02-.51-2.06-.99-3.09-1.49.05-.16.11-.34.16-.51.84.08,1.87-.14,2.46.28,1.06.73,2.79.56,3.21,2.19.03.09.27.16.42.19,3.57.84,7.14,1.68,10.7,2.49.27.07.56.01.89.01-.61-.39-1.12-.72-1.64-1.04.05-.14.11-.26.16-.39,6.68.49,13.31.39,19.72-1.88ZM346.4,89.97c.69.15,1.41.24,2.1.46.6.19,1.19.46,1.73.79.22.12.3.46.43.7-.19.09-.43.32-.57.27-1.31-.51-2.6-1.08-3.89-1.63.07-.2.12-.41.19-.6ZM257.05,86.3c.01.11.04.22.05.32-.27.09-.53.23-.81.26-1.42.15-2.86.3-4.29.38-.27.01-.57-.23-.85-.38,1.96-.19,3.93-.39,5.9-.58ZM220.13,91.38c-1.71.69-3.52.6-5.32.53,1.75-.43,3.43-1.49,5.32-.53ZM163.45,78.52c-.39.64-.72,1.18-1.06,1.72l-.42-.42c-.14-1.22.35-1.68,1.48-1.3ZM154.58,53.34c-1.62,2.91-3.28,5.81-4.92,8.69-.14.24-.37.43-.54.65-.15-.08-.31-.16-.46-.23.24-.79.37-1.64.76-2.33,1.41-2.46,2.91-4.89,4.43-7.29.16-.28.66-.37,1-.54-.08.35-.11.74-.27,1.04ZM183.08,96.01c.12-.22.27-.39.45-.53.19-.14.39-.23.62-.31.23-.07.49-.11.74-.11.28,0,.54.04.79.12.23.08.45.19.64.34.18.15.32.34.43.56.11.23.16.49.16.79,0,.26-.04.49-.11.7-.07.2-.16.41-.28.58s-.26.34-.41.5l-.22.22c.04-.05.08-.12.11-.19.35-.65.64-1.84,0-2.44-.03-.03-.07-.07-.14-.11l-.09-.09c-.11-.09-.23-.16-.38-.22-.03-.01-.15-.05-.31-.07,0,0-.08-.01-.16-.01-.09,0-.5,0-.83.28-.22.2-.35.45-.42.77l-.84-.08c.04-.27.12-.5.24-.7ZM186.97,101.78h-4.27v-.89l2.49-2.42c.16-.15.3-.28.42-.42.03-.04.07-.07.09-.11-.04.24-.12.51-.24.81-.2.49-.45.88-.69,1.18l-1.18,1.11h0s3.37.01,3.37.01v.73ZM189.76,106.01h-.89l1.27-2.8c.28-.15.58-.35.88-.61.19-.18.37-.37.51-.54l-1.77,3.95ZM191.44,101.33c-.27.35-.57.65-.84.88l.95-2.09h-3.18v-.73h4.02c-.15.54-.42,1.25-.95,1.94ZM268.26,96.09c-.03-.16-.05-.34-.08-.5.73-.12,1.49-.24,2.22-.37.04.2.07.39.11.58-.74.09-1.5.19-2.25.28ZM274.05,95.73h-2.57v-.38h2.6c-.01.14-.01.26-.03.38ZM301.31,95.57c-1.69-.11-3.4.11-5.12.15-.6.01-1.21-.11-1.8-.14-2.79-.09-5.58-.2-8.37-.28-1.11-.04-2.22,0-3.33-.05-.2,0-.41-.24-.61-.37h-.08c-.85.24-1.72.62-2.6.7-1.42.12-2.86.03-4.29.03-.01-.2-.01-.39-.01-.58,2.3-.05,4.6-.11,6.91-.15.03-.01.04-.01.07-.03,0,.01.01.01.01.03,2.82-.16,5.61-.49,8.41-.42,5,.15,9.99.51,14.98.81.84.04,1.58.22,1.75,1.11-1.98-.28-3.93-.69-5.9-.81ZM313.6,96.87c-1.99-.27-3.98-.56-5.96-.84.01-.16.04-.34.07-.51,1.99.26,3.98.51,5.96.79-.01.19-.05.38-.07.57ZM341.94,102.89c-2.84-.6-5.7-1.23-8.56-1.79-2.88-.57-5.78-1.04-8.68-1.56v-.56c.41-.07.83-.27,1.19-.19,5.16,1.11,10.32,2.25,15.48,3.4.23.05.45.22.68.33-.04.12-.07.24-.11.37ZM343.34,101.61c-1.5-.85-3.45.23-4.89-1.19-.5-.49-1.38-.6-2.1-.85-.18-.07-.51-.12-.57-.05-.66,1.08-1.35.22-2.04.04-2.57-.6-5.13-1.26-7.72-1.75-2.95-.54-5.95-.95-8.91-1.41-1.5-.22-3.01-.41-4.51-.64-.37-.05-.7-.22-1.07-.34.03-.16.05-.33.08-.49.41,0,.83-.05,1.22,0,6.08.99,12.16,1.94,18.23,2.98,2.76.49,5.51,1.14,8.25,1.75,1.08.23,2.15.47,3.2.8.42.14.77.49,1.18.76-.23.27-.32.39-.34.39ZM348.38,103.8c-1.37-.84-2.74-1.71-4.12-2.56.03-.09.04-.19.05-.3,1.26.3,2.56.45,3.74.92.64.26.92,1.08.32,1.94ZM352.29,105.44l-2.74-.73c.04-.14.07-.27.11-.42,1.06-.45,1.87.27,2.72.73-.03.14-.07.28-.09.42ZM356.96,105.68c-.81-.41-1.63-.81-2.53-1.27.95-.53,2.02-.11,2.69.91-.05.12-.11.24-.16.37ZM361.73,107.02c-.98-.64-1.84-1.21-2.9-1.91,1.71-.27,3.16.74,2.9,1.91ZM360.29,108.04c.97-.43,1.6-.72,2.38-1.07.64,2.07,2.46,2.17,4.13,2.61,1.72.46,3.41,1.06,5.11,1.63.27.08.47.37.62.74-4.12-.85-8.11-2.04-12.24-3.91ZM375.52,113.6c1.11-.87,1.98-.53,2.75,1.07-1.07-.42-1.84-.72-2.75-1.07ZM386.25,118.26c-.74-.31-1.5-.62-2.26-.93.05-.14.09-.26.15-.37.76.26,1.53.53,2.3.8-.07.16-.12.34-.19.5ZM393.27,118.41l-2.52-1.26c.07-.14.14-.27.2-.42.87.34,1.72.68,2.6,1.02-.09.22-.19.43-.28.66ZM400.54,123c.04-.16.09-.34.15-.51.96.31,1.91.61,2.87.92-.05.16-.09.31-.15.47-.96-.3-1.91-.58-2.87-.88Z"/>
  <path class="cls-1" d="M180.8,47.76c-.05.3-.08.61-.09.93-.85-1.04-1.9-1.81-2.49-3.02.08-.11.16-.22.24-.32.38.35.76.68,1.11,1.03.43.43.83.92,1.23,1.38Z"/>
  <path class="cls-1" d="M168.24,53.33c-1.27-.12-2.23-1.52-2.4-3.01-.07-.58-.35-1.22-.74-1.49-1.07-.72-1.76-1.73-2-2.94-.49-.28-.93-.39-1.18-.7-.74-.92-1.46-1.9-2.11-2.93-.81-1.29-1.58-2.63-2.36-3.94.15-.32.27-.65.39-.97.38.97,1.15,1.88,1.94,1.86-.53-.93-1.06-1.87-1.58-2.8.12-.37.24-.73.35-1.1.83,1.16,1.77,2.23,2.21,3.64.58,1.92,1.46,3.53,2.44,5.12,1.68,2.75,3.28,5.59,4.9,8.41.11.2.09.53.15.85Z"/>
  <path class="cls-1" d="M193.92,8.37c-.46-2.98-2.29-5-4.96-6.28-.18-.09-.46.05-.7.09-.34.04-.77.26-1,.12C186.02,1.58,184.82.8,183.61,0h-.01s.01.05.01.08c.24,1.6.04,3.26.09,4.89.03.65.2,1.31.35,1.96.31,1.34.54,2.72,1.03,3.99.37.96,1.1,1.79,1.71,2.74-.68-.11-1.11-.23-1.35-1.03-.31-1-1.02-1.88-1.52-2.83-.83-1.57-1.75-3.1-2.37-4.75-.45-1.18-.46-2.53-.68-3.81C180.81.83,180.71.41,180.63,0c-.08.04-.15.09-.23.16-.04.03-.08.05-.12.08h-.01c-.03,1.76.74,3.51.28,5.44-.62-1.07-1.08-3.25-1.27-5.2-.2.04-.41.09-.61.14.18,1.98.3,3.94.47,5.92.09,1.1.3,2.19.35,3.29.01.32-.35.66-.66,1.23-.65-1.45-1.27-2.8-1.88-4.17-.14.04-.26.08-.38.12.19.77.38,1.54.57,2.33-.05.01-.11.04-.15.05l-1.07-2.68c-.11.04-.22.08-.34.12.2,1.75.99,3.33,1.46,5.02-.66-1.27-1.34-2.55-2-3.82-.08.05-.16.09-.26.14.12,3.06,1.98,5.53,3.11,8.23-.09.04-.18.08-.26.12-.96-1.6-1.92-3.2-2.88-4.78-.07.03-.15.05-.23.08.16.51.33,1.04.47,1.57-2.26-3.56-3.63-7.38-3.97-11.52-.22.03-.43.05-.65.08.04,1.12.11,2.23.18,3.34.03.5.19.99.26,1.49.07.58.09,1.16.15,1.76.03.27.04.57.12.83,1.06,3.44,2.34,6.77,4.54,9.68.18.22.32.47.45.73.11.22.16.46.18.73-3.53-4.04-5.51-8.86-7.11-13.88h-.32c-.09.46-.19.93-.3,1.49-.09-.23-.22-.43-.24-.65-.22-1.42-.43-2.86-.65-4.28-1.18.8-2.32,1.69-3.34,2.67-3.1,2.95-6.12,5.99-9.18,8.98.09.39.07.88-.15,1.5-.14-.32-.27-.65-.39-.98-.68.68-1.37,1.35-2.07,2.02.34.8.7,1.58,1.14,2.29,1.72,2.72,3.6,5.29,5.3,8.04,1.14,1.87,2.06,3.94,3.09,5.9.2.38.49.68.72,1.02.15-.08.3-.16.43-.24-.09-1.29-.18-2.57-.27-3.86.42.95,1.23,1.53.91,3.05-.23,1.06.19,2.15.47,3.14.26.92.73,1.71,1.11,2.55.08-.08.19-.14.19-.18-.01-2.14.57-4.51-.74-6.12-.14-.18-.12-.56-.12-.85.03-.58.09-1.16.15-1.87,2.04,2.95,3.34,6.59,5.9,9.2.11.34.2.95.46,1.42.5.89,1.03,1.79,1.67,2.55.42.51,1.08.76,1.54,1.25.89.95,1.73,1.96,2.56,2.98,1.35,1.69,2.67,3.41,4.02,5.11.26.31.51.61.79.91.31-.54.61-1.08.91-1.63.38-.69.73-1.39,1.07-2.11-.46-.22-.91-.45-1.34-.7-.38-.23-.72-.51-1.04-.84-.15.2-.3.41-.43.61.37.49.68,1.04.89,1.72-2.34-.81-6.53-5.84-6.11-7.26.34.16.66.32,1,.49.08-.11.16-.23.26-.34-.6-.54-1.21-1.07-1.76-1.65-.2-.22-.28-.57-.39-.89-.07-.19,0-.5-.09-.65-.58-.79-1.25-1.5-1.8-2.33-.5-.74-.89-1.6-1.35-2.38-1.25-2.1-2.55-4.13-3.72-6.28-.76-1.39-1.3-2.98-2-4.43-.93-1.91-1.94-3.75-2.9-5.65-.57-1.15-1.15-2.32-1.62-3.55-.15-.38.05-1,.11-1.53.12-.04.24-.08.37-.14.11.35.22.69.32,1.06.09.38.19.77.31,1.22.34-.22.62-.39.79-.49,1.18,2.13,2.36,4.2,3.51,6.3.22.42.22,1.02.47,1.39,2.52,3.81,5.06,7.58,7.62,11.35.8,1.16,1.69,2.25,2.52,3.4.43.61.7.45.96-.46.11.3.14.66.31.77,1.5.85,1.69,2.98,2.86,4.2.22.23.43.49.61.74.72-1.88,1.46-3.74,2.19-5.62,1.52-3.89,3.81-7.37,6.03-10.85,3.7-5.81,4.62-12.11,3.6-18.77ZM158.95,11.21c1.77-.07,1.26,1.95,2,3.2-1.3-.3-2.36-2.25-2-3.2ZM156.32,19.23c-.2.15-.53.28-.68.2-.12-.07-.18-.49-.08-.69.27-.68.64-1.34,1.11-2.29.24,1.14.85,1.9-.35,2.78ZM161.59,28.06s-.16.27-.31.56c-.07-.04-.15-.04-.18-.09-1.16-2.4-2.33-4.79-3.48-7.22-.07-.15.05-.45.08-.68.08-.04.16-.07.23-.09.3.54.57,1.1.89,1.61.28.45.62.84,1,1.15.57,1.54,1.14,3.07,1.76,4.77Z"/>
  <path class="cls-1" d="M156.22,30.18c-.08-.18-.34-.24-.51-.37-.09.08-.2.15-.31.23.43,1.42.88,2.86,1.31,4.29-.04.04-.09.09-.14.14-.15-.12-.35-.22-.42-.39-.2-.54-.41-1.08-.51-1.68-.46-2.84-1.54-5.32-3.14-7.2-1.07-1.26-1.49-3.02-2.59-4.23-.19-.22-.38-.45-.56-.68-1.98,1.75-3.98,3.47-5.85,5.34-1.14,1.14-2.26,2.28-3.37,3.44.04.73.01,1.44-.84,2.02.08-.46.15-.92.22-1.38-.83.85-1.65,1.72-2.46,2.59-.01.07-.01.15-.01.22-.01,2.99.14,5.99.08,8.96-.04,2.02-.31,4.04-.46,6.07-.03.38.03.77.04,1.16.12.03.26.07.38.11.49-.93.96-1.88,1.45-2.82-.14.92.16,1.84-.69,2.67-.58.58-.79,1.61-1.02,2.46-.22.8-.23,1.64-.34,2.46.08.01.19.04.2.01.88-1.48,2.26-2.72,2.09-4.69-.01-.22.15-.46.27-.66.26-.38.56-.74.88-1.18.05,1.69-.09,3.37-.19,5.06.16-.15.34-.3.5-.45.65-.58,1.3-1.16,1.95-1.73.01-.5.04-1,.07-1.5.09-1.45.41-2.88.56-4.35.19-1.91.31-3.83.47-5.74.11-1.18.22-2.34.43-3.49.07-.37.46-.66.7-.99.11.05.2.09.31.15-.08.31-.15.62-.24.92-.08.34-.19.66-.31,1.04.32.08.58.15.72.19-.11,2.23-.22,4.41-.35,6.59-.03.43-.28.85-.27,1.27.01,1.33.04,2.64.05,3.97.68-.62,1.35-1.25,2.02-1.9.96-.95,1.58-2.23,2.52-3.22,2.78-2.91,5.61-5.76,8.45-8.6.16-.18.35-.31.56-.42-.54-1.25-1.08-2.48-1.64-3.71ZM138.72,43.46s-.22.08-.43.18c-.03-.07-.08-.14-.08-.18.24-2.41.5-4.82.76-7.22.03-.15.23-.28.34-.42.07.03.14.05.2.08-.04.57-.09,1.14-.11,1.69,0,.49.05.97.18,1.44-.27,1.44-.56,2.86-.85,4.43ZM138.99,33.96c-.2-.04-.46-.15-.53-.31-.05-.12.09-.43.23-.53.47-.27.98-.49,1.69-.84-.32.95-.24,1.87-1.39,1.68ZM144.03,33.68c-.7-1.04-.58-3.07.04-3.51,1.19,1.12,0,2.17-.04,3.51ZM154.52,33.75c-.08-.11-.16-.2-.24-.31-.61-.85-.43-2.42-1.73-2.67-.26-.05-.38-.65-.46-1.03-.23-.95-.34-1.95-.61-2.86-.11-.32-.57-.41-.79-.69-.23-.3-.37-.7-.57-1.14,1.15-.07,1.1,1.81,2.38,1.22.74,2.44,1.48,4.89,2.22,7.33-.07.05-.14.09-.2.15Z"/>
  <path class="cls-1" d="M134.32,41.41c.03-.19-.12-.39-.18-.6-.11-.01-.2-.03-.3-.04-.33,1.26-.64,2.53-.95,3.79h-.15c-.04-.18-.14-.38-.11-.54.09-.5.19-1,.37-1.48.89-2.26,1.23-4.66.97-6.99-.2.22-.41.43-.61.65.05.04.11.07.18.09-.54,2.15-1.1,4.31-1.64,6.46-.05-.01-.12-.01-.19-.03,0-.12-.01-.24-.03-.38-.04-.97.73-1.95-.01-2.95-.15-.2.03-.69.14-1.02.08-.27.19-.54.28-.81-.08.09-.18.2-.27.3-6.15,6.66-12.97,12.58-19.69,18.61-.54.49-1.07.96-1.6,1.46,1.49-2.98,2.68-6.11,4.03-9.17.07-.12.08-.27.12-.41-1.07,1.02-2.7,1.48-2.94,3.17-.03.2-.3.37-.45.54-.46.53-.95,1.04-1.37,1.6-.73.96-1.43,1.95-2.14,2.94.04-1.31.23-2.48.62-3.56.95-2.63,2-5.23,3.02-7.83,1.52-3.9,3.79-7.38,6.01-10.86,3.71-5.81,4.63-12.11,3.62-18.77-.46-2.97-2.3-4.98-4.96-6.28-.18-.08-.46.05-.7.09-.34.05-.77.27-1,.14-1.25-.72-2.44-1.52-3.64-2.32-1.12-.73-2.17-.7-3.22.16-.19.16-.49.2-.76.27-1.73.34-3.47.69-5.21,1-.92.16-1.86.24-2.78.39-.95.15-2.02.09-2.78.57-.51.32-1.02.65-1.52,1,.19.14.38.27.57.38.91.53,2.09.62,3.21.93-.7.51-1.19.79-1.88.3-.77-.56-1.77-.74-2.68-1.06t-.01,0c-.8.62-1.56,1.25-2.28,1.94-.76.72-1.5,1.44-2.25,2.17.08.34,0,.87.03,1.5-.35-.18-.7-.34-1.04-.51-.6.58-1.19,1.16-1.79,1.76.54.35,1.08.69,1.6,1.08-.64-.26-1.29-.5-1.92-.76-.32.31-.64.62-.96.95,1.86,1.46,4.27,2.04,6.34,3.17-.07.11-.12.23-.18.34-1.84-.58-3.68-1.15-5.53-1.72-.05.08-.11.18-.18.28.46.32.92.65,1.37.99-1.26-.35-2.45-.79-3.59-1.34-.58.58-1.18,1.16-1.77,1.75,2.8,1.94,5.77,3.56,9.25,4.14.3.05.58.15.85.27.23.09.42.27.58.5-4.33-.35-8.1-1.92-11.61-4.02-.5.49-1,.96-1.5,1.45-2.76,2.64-5.77,5.05-8.48,7.75-4,3.99-7.85,8.11-11.69,12.26-5.94,6.45-12.54,12.2-19.05,18.04-.2,1.08.18,2.21-1.5,3.16.3-.87.6-1.73.88-2.6-1.34,1.21-2.65,2.42-3.95,3.67-.05.19-.09.39-.12.58-.5,3.18-.76,6.35-1.3,9.53-.37,2.15-1.04,4.32-1.56,6.49-.09.41-.08.83-.12,1.23.16.04.32.07.49.09.77-1.02,1.54-2.04,2.33-3.07-.31.99-.08,1.95-1.31,2.88-.87.65-1.29,1.75-1.72,2.68-.41.87-.57,1.76-.84,2.64.12,0,.24.03.27,0,1.39-1.61,3.39-3.03,3.47-5.11.01-.23.27-.5.46-.72.41-.42.84-.83,1.34-1.3-.14,1.14-.37,2.28-.61,3.43,1.19-1.06,2.37-2.11,3.56-3.16.07-.07.15-.12.22-.19.34-1.14.76-2.28,1.07-3.4.56-2.06,1-4.1,1.53-6.16.32-1.25.65-2.51,1.11-3.74.14-.39.7-.73,1.08-1.08.12.04.24.09.37.14-.15.34-.28.66-.45,1-.18.35-.37.7-.57,1.12.39.07.73.12.91.15-.5,2.38-.97,4.73-1.5,7.06-.09.45-.49.91-.56,1.37-.04.35-.09.69-.14,1.04,3.05-2.68,6.09-5.36,9.14-8.06,2.94-2.59,5.84-5.21,8.75-7.83,2.26-2.02,4.5-4.05,6.74-6.08,2.04-1.84,4.14-3.64,6.11-5.57.96-.95,1.58-2.22,2.52-3.21,2.76-2.91,5.61-5.77,8.45-8.61.38-.39.92-.64,1.39-.93.11.09.2.2.31.3-1.88,7.41-6.23,13.53-10.62,19.65.15.09.28.19.42.28,2.82-3.26,5.63-6.51,8.46-9.76.19.38.2.62.09.83-.99,1.75-1.92,3.53-2.99,5.23-2.95,4.66-6.38,9.02-8.6,14.12-.56,1.25-1.02,2.53-1.6,3.75-.18.35-.69.54-1.04.8-.03-.39-.16-.83-.05-1.18.47-1.49,1.04-2.95,1.54-4.44.09-.24.08-.54.11-.81-.09-.01-.18-.04-.27-.05-.5,1.34-1,2.69-1.49,4.05-.11-.05-.23-.09-.34-.14.04-.37.07-.73.11-1.08-1.29,2.91-2.46,5.86-3.66,8.79-.12.3-.24.61-.38.91-.76,1.81-1.54,3.62-2.23,5.44-.27.73-.23,1.57-.33,2.36.12.03.26.04.39.05.07-.45.09-.92.24-1.35.2-.64.39-1.33.8-1.81.26-.3.93-.28,1.41-.28.08,0,.2.66.22,1.03.08,1.04.16,2.1.15,3.14-.01.64.09,1.19.3,1.71,3.76,2.1,8.06,3.28,12.51,3.34h.01s.05.07.07.09c.89,1.6,2.36,1.44,3.71.96,1.02-.35,2.02-.73,3.02-1.15-.08-.22-.16-.43-.23-.65h-.01c-.16-.47-.34-.95-.54-1.39-.28-.64-.73-1.18-1.15-1.72-.87-1.12-1.67-2.36-2.71-3.29-.79-.72-1.92-1.03-2.95-1.56.79-.37,1.31-.54,1.9.08.74.79,1.87,1.18,2.79,1.79,1.53,1,3.16,1.9,4.5,3.11.6.54,1.02,1.26,1.42,1.99.07.09.12.2.18.31.16-.08.33-.15.49-.22.05-.03.12-.05.18-.08-.05-.09-.12-.19-.18-.28-.5-.79-.96-1.61-1.15-2.65-.03-.12-.05-.27-.07-.41.8.47,1.72,1.56,2.52,2.8.28-.12.56-.27.83-.43-.7-1.39-1.39-2.8-2.11-4.2-.03-.05-.07-.12-.09-.18-.51-.97-1.12-1.88-1.58-2.88-.14-.32.12-.91.24-1.69,1.06.8,2.04,1.56,3.03,2.32.24.19.47.37.7.54.12-.12.24-.26.37-.38-.2-.26-.41-.51-.61-.77-.31-.39-.61-.77-.92-1.16.04-.05.09-.11.14-.16l1.08.95,1.15,1c.11-.12.22-.24.32-.37-.27-.49-.6-.92-.96-1.33-.81-.95-1.8-1.73-2.63-2.68,1.04.68,2.09,1.35,3.13,2.03.2.14.39.26.6.39.08-.11.15-.2.23-.31-.11-.24-.23-.47-.37-.69-1.45-2.48-4.18-3.63-6.31-5.4.08-.09.16-.19.24-.3,1.69.93,3.37,1.87,5.06,2.79.07-.08.15-.16.23-.24-.38-.41-.77-.83-1.14-1.25,1.29.65,2.46,1.39,3.55,2.25,2.03,1.58,3.72,3.53,5.01,5.86.24-.19.49-.38.72-.57-.38-.85-.77-1.68-1.18-2.52-.22-.47-.61-.85-.87-1.31-.31-.53-.57-1.11-.85-1.67-.14-.26-.26-.54-.46-.74-.3-.32-.61-.65-.92-.96-1.64-1.68-3.4-3.21-5.44-4.37-.77-.46-1.6-.87-2.46-1.21-.27-.11-.54-.24-.77-.42-.2-.15-.37-.37-.49-.61,1.57.45,3.03,1.06,4.4,1.77,2,1.07,3.82,2.4,5.51,3.87,1.18,1.04,2.32,2.17,3.41,3.32.12-.08.24-.15.37-.23-.08-.53-.16-1.07-.26-1.71.19.18.41.28.53.49.81,1.29,1.61,2.57,2.4,3.87,2.9-2.46,5.73-5.05,8.6-7.56,4.08-3.59,8.15-7.16,12.21-10.75.99-.88,1.98-1.76,2.97-2.67-.05-.61-.11-1.22-.07-1.81.09-1.04.42-2.09.68-3.11.2-.87.46-1.71.83-2.55-.01,1.38-.03,2.76-.04,4.14.11.03.23.04.34.07.09-.27.26-.56.28-.84.19-2.42.34-4.86.51-7.3,0-.12-.01-.3.05-.38,1.04-1.21.22-2.97,1.35-4.27.03.23.07.39.07.57-.04,1.52-.12,3.03-.14,4.55,0,1.12.05,2.26.15,3.39.04.38.28.74.49,1.25-.27.73-.33,1.54-.16,2.41.31-.27.61-.54.91-.81.03-.93.05-1.86.07-2.79.04-1.72.14-3.39.57-5.09.37-1.45.07-3.05.08-4.58,0-.18.08-.35.11-.53.19-1.29.36-2.56.53-3.85ZM37.54,73.23c-.08.53-.08,1.04-.01,1.53-.57,1.53-1.15,3.06-1.79,4.75-.01,0-.31.09-.61.2-.03-.07-.08-.12-.07-.18.69-2.59,1.39-5.16,2.13-7.73.04-.16.33-.31.5-.46.08.03.16.05.24.08-.14.6-.3,1.21-.39,1.8ZM37.56,69.39c-.26-.03-.58-.14-.65-.28-.04-.14.19-.49.39-.58.66-.32,1.37-.58,2.34-.99-.56,1.03-.61,1.99-2.09,1.86ZM44.21,68.81c-.77-1.07-.28-3.24.61-3.72,1.37,1.12-.34,2.3-.61,3.72ZM81.72,60.59c-1.62,2.91-3.26,5.8-4.92,8.69-.14.23-.35.42-.54.64-.15-.07-.3-.15-.45-.23.24-.77.35-1.63.74-2.32,1.42-2.46,2.93-4.89,4.43-7.3.18-.28.68-.37,1.02-.53-.09.34-.11.73-.28,1.04ZM132.86,49.9c-.74-.69-.68-2.64-.13-3.49.09.01.2.03.3.03-.05,1.16-.11,2.32-.16,3.47Z"/>
  <path class="cls-1" d="M427.87,116.57c-.43.76-.79,1.21-1.86,1.12-1.33-.09-2.69.33-4.05.46-2.23.24-4.48.62-6.72.57-1.61-.03-3.22-.65-4.82-.99-.61-.14-1.22-.22-1.83-.32-.03.12-.05.24-.07.37,2.13,1.1,4.77.88,6.99,2.44-3.02.42-10.6-1.73-11.02-3.09.47-.01.92-.04,1.37-.07.03-.14.05-.26.08-.39-.97-.18-1.95-.31-2.91-.54-.34-.07-.66-.32-.96-.54-.19-.14-.31-.42-.5-.49-1.12-.38-2.26-.65-3.37-1.07-.99-.37-1.94-.89-2.92-1.31-2.61-1.14-5.27-2.18-7.84-3.4-1.68-.79-3.24-1.84-4.88-2.69-2.18-1.12-4.4-2.15-6.58-3.26-1.33-.66-2.67-1.35-3.93-2.14-.39-.24-.56-.85-.83-1.29.11-.11.22-.2.33-.3.32.24.65.47.97.72.35.26.69.54,1.08.85.24-.34.45-.61.56-.76,2.59,1.18,5.12,2.33,7.64,3.51.49.23.87.73,1.37.92,5.04,1.92,10.09,3.83,15.15,5.71,1.58.58,3.21,1.06,4.81,1.61.83.3,1.03.03.73-.83.31.19.57.49.81.49,2.15,0,3.66,1.65,5.66,2.11,1.99.45,3.86,1.48,5.82,2.17.79.28,1.64.39,2.48.51,1.73.26,3.47.64,5.21.65,1.3.01,2.63-.46,4.02-.73Z"/>
  <path class="cls-1" d="M256.22,89.88c-1.67.91-33.11,5.71-35.01,5.35,1.16-.87,32.74-5.69,35.01-5.35Z"/>
  <path class="cls-1" d="M375.84,118.84c-.04.07-.07.14-.11.22-.16-.05-.31-.09-.46-.15-1.18-.41-1.96-1.77-3.51-1.37-.31.08-.8-.35-1.12-.62-.83-.66-1.56-1.44-2.41-2.04-.31-.23-.85-.08-1.26-.22-.43-.14-.83-.41-1.33-.65,1.22-.6,2.32.96,3.33-.12,2.29,1.65,4.58,3.3,6.87,4.96Z"/>
  <path class="cls-1" d="M379.85,111.11v.61c-.09,0-.19.04-.24,0-2.74-1.41-5.46-2.83-8.17-4.28-.18-.09-.23-.39-.34-.6.07-.05.14-.12.19-.19.65.31,1.29.65,1.95.92.58.23,1.18.39,1.79.47,1.54.99,3.1,1.98,4.82,3.06Z"/>
  <path class="cls-1" d="M313.03,100.29c-.01.12-.03.26-.04.39-3.94-.35-7.89-.7-11.84-1.04-.01-.16-.01-.32-.03-.49,1.99.15,3.98.27,5.97.46,1.98.19,3.95.45,5.93.68Z"/>
  <path class="cls-1" d="M278.09,101c-4.05.2-8.11.39-12.16.59,0-.14-.01-.28-.02-.43,4.06-.22,8.12-.44,12.18-.65,0,.16,0,.33,0,.49Z"/>
  <rect class="cls-1" x="293.19" y="88.01" width="10.44" height=".34"/>
  <path class="cls-1" d="M370.79,100.26c-1.57.35-3.91-.74-4.12-1.68,1.87-.88,2.56,1,4.12,1.68Z"/>
  <path class="cls-1" d="M384.72,121.08c-1.18.56-3.44-.43-4.2-1.48.05-.12.12-.23.18-.35,1.34.61,2.68,1.22,4.02,1.83Z"/>
  <path class="cls-1" d="M287.7,100.86h-6.74c.72-.7,5.19-.79,6.74,0Z"/>
  <path class="cls-1" d="M368.76,106.36c-.14.22-.39.47-.61.47-.18.01-.47-.31-.51-.53-.11-.68-.12-1.38-.2-2.38.97.83,2.09,1.16,1.33,2.44Z"/>
  <path class="cls-1" d="M285.2,87.95h6.69c0,.07,0,.14,0,.21h-6.73l.05-.21Z"/>
  <path class="cls-1" d="M365.51,104.65c-1.11-.66-2.22-1.33-3.33-1.99.07-.11.14-.23.2-.34,1.19.53,2.69.51,3.13,2.33Z"/>
  <path class="cls-1" d="M261.78,104.56c-.77.03-1.54.07-2.32.11-.01-.12-.03-.26-.04-.38.79-.09,1.56-.18,2.34-.27,0,.18.01.35.01.54Z"/>
  <path class="cls-1" d="M186.92,38.72c-.45.64-.89,1.27-1.35,1.92-.09-.05-.18-.11-.27-.15.38-.69.77-1.38,1.15-2.07.16.09.32.19.47.3Z"/>
  <path class="cls-1" d="M252.27,105.75c-.93.09-1.87.19-2.8.28-.01-.14-.03-.26-.04-.39l2.8-.28c.01.14.03.26.04.39Z"/>
  <path class="cls-1" d="M248.21,86.58c-.62-.11-1.23-.2-1.81-.28"/>
  <path class="cls-1" d="M234.94,86.61c1.01-.16,1.95-.3,2.8-.4.91-.1,1.98-.19,3.19-.21"/>
  <path class="cls-1" d="M226.55,88.17c-1.58.3-3.1.57-4.43.77"/>
  <path class="cls-1" d="M193.99,92.79c-1.48-.24-3.16-.64-5.07-1.27"/>
  <path class="cls-1" d="M171.76,48.89c-.12.14-.23.26-.35.39-.51-.66-1.03-1.31-1.56-1.96.12-.15.26-.28.38-.42.51.66,1.02,1.33,1.53,1.99Z"/>
  <path class="cls-1" d="M167.71,39.66c-.18.16-.37.33-.54.49-.37-.72-.73-1.44-1.1-2.15.11-.09.23-.2.35-.31.42.66.87,1.31,1.29,1.98Z"/>
  <path class="cls-1" d="M162.73,36.83c-.14.12-.27.26-.41.39-.37-.6-.72-1.18-1.08-1.77.09-.09.19-.19.3-.28.39.56.8,1.11,1.19,1.67Z"/>
  <path class="cls-1" d="M158.61,30.73c-.53-.83-.91-1.41-1.37-2.1,1.23-.35,1.67.31,1.37,2.1Z"/>
  <path class="cls-1" d="M156.03,25.91c-2-1.98-3.82-4.14-5.44-6.72.34-.31.66-.61.99-.92-.12,1.52.89,2.25,1.68,3.16.96,1.12,1.84,2.34,2.74,3.55.14.19.14.53.04.93Z"/>
  <path class="cls-1" d="M159.78,39.2c-.79.03-1.56-.88-1.94-1.86.12-.31.24-.64.35-.95.53.93,1.06,1.87,1.58,2.8Z"/>
  <path class="cls-1" d="M154.94,16.36c-.14-.32-.27-.65-.39-.98.19-.16.37-.34.54-.53.09.39.07.88-.15,1.5Z"/>
  <path class="cls-1" d="M439.77,93.94c-1.61-2.82-3.21-5.65-4.9-8.4-.97-1.6-1.86-3.2-2.44-5.13-.5-1.63-1.71-2.82-2.57-4.21-.11-.16-.14-.39-.22-.58-.56-1.31-1.12-2.61-1.72-3.9-.2.2-.41.41-.58.62.34,1.15.69,2.3,1.06,3.47-.05.05-.09.09-.15.15-.15-.14-.35-.23-.42-.41-.2-.54-.41-1.08-.5-1.68-.07-.42-.15-.83-.26-1.23-.37.42-.7.85-1,1.3.11.38.23.74.34,1.12-.07.05-.12.11-.19.15-.08-.09-.16-.2-.24-.31-.09-.14-.18-.28-.24-.46-1.23,1.95-1.92,4.1-1.92,6.36,0,4.92,3.24,9.33,8.36,12.27-.11-.32-.2-.65-.3-.96-.3-.96-.56-1.96-.69-3.05.8,1.26,1.58,2.52,2.38,3.78.12-.07.24-.15.37-.23-.08-.34-.08-.74-.23-1.02-1.25-2.37-2.51-4.71-3.76-7.08-.07-.12-.18-.26-.16-.39.28-2.03-1.52-2.87-1.21-5.08.16.19.3.3.39.46.85,1.41,1.65,2.84,2.53,4.23.65,1.03,1.37,2,2.11,2.93.26.32.7.43,1.18.7.24,1.22.93,2.22,2,2.94.41.27.69.91.74,1.49.16,1.49,1.14,2.9,2.41,3.02-.05-.34-.04-.65-.16-.87ZM429.29,77.64c.11-.08.2-.16.31-.24.62,1.1,1.25,2.19,1.86,3.29-1.11.04-2.18-1.79-2.17-3.05Z"/>
  <path class="cls-1" d="M435.4,94.66c-.65-.27-1.29-.56-1.9-.87.11-.12.22-.23.34-.35.53.41,1.35.61,1.56,1.22Z"/>
  <path class="cls-1" d="M441.53,96.39c-.34-.07-.69-.14-1.03-.2-.08-.24-.14-.51-.22-.76.12-.12.24-.24.35-.38.28.46.58.92.89,1.34Z"/>
  <path class="cls-1" d="M450.79,96.54c-.03.05-.07.12-.11.18.14-.01.26-.03.39-.04-.09-.04-.19-.09-.28-.14ZM429.83,70.05c-.2.16-.41.32-.61.49.34.51.66,1.02,1.07,1.65.22-1.26.07-1.95-.46-2.14Z"/>
  <path class="cls-1" d="M470.9,80.89c0,.64-.07,1.27-.18,1.88-.12-.16-.24-.31-.38-.46-.35-.41-.8-.69-1.11-1.11-1.06-1.39-2.1-2.8-3.1-4.25-.22-.31-.27-.8-.41-1.21.11-.12.23-.24.35-.37,1.35,2.22,2.97,4.06,4.82,5.51Z"/>
  <path class="cls-1" d="M465.37,75.12c-1.27-.12-2.25-1.52-2.4-3.01-.07-.58-.35-1.22-.74-1.49-1.08-.72-1.77-1.73-2.02-2.95-.47-.27-.92-.38-1.16-.69-.05-.07-.09-.12-.15-.19.95.37,1.84.77,2.71,1.22h.01c1.21,2.07,2.4,4.17,3.59,6.26.12.2.11.53.16.85Z"/>
  <path class="cls-1" d="M470.2,84.72c-1.26,3.43-4.14,6.43-8.06,8.59-.45-.11-.88-.26-1.26-.49-1.21-.7-2.22-1.76-3.3-2.68-.51-.45-1.07-.89-1.48-1.46-1-1.42-1.77-3.11-2.94-4.33-1.16-1.22-1.35-3.36-2.86-4.21-.18-.09-.2-.47-.31-.77-.24.91-.51,1.07-.95.47-.83-1.16-1.72-2.23-2.53-3.41-2.42-3.56-4.82-7.14-7.22-10.73,2.52-.62,5.23-.96,8.06-.96,3.01,0,5.89.38,8.53,1.08,1.08,2.03,2.18,4.05,3.24,6.11.15.27.15.66.23,1-.12.08-.24.16-.37.24-.8-1.26-1.58-2.52-2.38-3.78.15,1.08.39,2.09.7,3.05.35,1.16.65,2.41,1.18,3.43.51,1,1.33,1.76,1.98,2.64.41.54.92,1.04.08,1.9.53.74,1.02,1.44,1.5,2.11.08-.01.18-.03.26-.04.04-.39.22-.91.09-1.18-.66-1.54-1.39-3.03-2.13-4.51-.45-.89-.92-1.75-1.38-2.61.12-.15.24-.27.38-.41.54.39,1.38.61,1.58,1.25.35,1.1,1.65,1.61,1.08,3.3-.03.11.11.26.2.35,2.06,2.19,4.12,4.39,6.19,6.57.15.16.39.24.62.37-.23-.61-.42-1.11-.6-1.61l.31-.31c.5.35,1.02.7,1.53,1.04Z"/>
  <path class="cls-1" d="M461.51,93.66c-2.13,1.1-4.54,1.95-7.14,2.51-.54-.65-1.14-1.26-1.69-1.94-1.35-1.69-2.67-3.41-4.02-5.11-.83-1.02-1.67-2.03-2.56-2.98-.46-.49-1.12-.72-1.54-1.23-.62-.77-1.15-1.65-1.65-2.56-.26-.47-.37-1.08-.47-1.41-2.56-2.61-3.86-6.26-5.89-9.2-.07.69-.14,1.27-.15,1.86-.01.3-.03.68.12.85,1.3,1.61.73,3.99.74,6.12-.01.04-.12.11-.2.18-.38-.84-.85-1.63-1.11-2.53-.28-.99-.69-2.1-.46-3.16.31-1.52-.5-2.09-.91-3.03.08,1.29.18,2.56.26,3.85-.14.08-.28.16-.42.24-.24-.34-.51-.64-.72-1.02-1-1.9-1.88-3.89-2.98-5.69.45-.3.89-.58,1.38-.85.23.47.46.96.69,1.44.03.04.11.05.18.08.16-.27.32-.54.32-.56-.18-.46-.34-.91-.5-1.34,1.42-.77,2.99-1.44,4.66-1.96.03.08.07.15.11.23.7,1.45,1.23,3.05,1.99,4.44,1.18,2.14,2.48,4.18,3.72,6.27.46.79.85,1.64,1.37,2.38.56.83,1.21,1.54,1.79,2.34.11.14.04.45.11.65.09.31.19.68.38.88.56.6,1.16,1.11,1.76,1.67-.08.11-.18.22-.26.32-.32-.16-.66-.31-1-.47-.42,1.41,3.76,6.43,6.11,7.26-.73-2.33-2.69-3.18-3.62-5.05.08-.11.16-.22.24-.31.37.34.74.66,1.11,1.03.95.96,1.73,2.17,2.86,2.84,1.54.93,3.32,1.48,5.01,2.15.77.31,1.62.47,2.38.8Z"/>
  <path class="cls-1" d="M434.41,78.3c-.12.14-.26.26-.39.39-.37-.58-.73-1.18-1.1-1.77.11-.09.2-.19.3-.28.39.56.8,1.11,1.19,1.67Z"/>
  <path class="cls-1" d="M439.41,81.13c-.19.18-.37.34-.56.5-.37-.72-.73-1.44-1.1-2.15.12-.11.23-.22.35-.32.43.66.87,1.33,1.3,1.98Z"/>
  <path class="cls-1" d="M443.44,90.37c-.11.12-.23.24-.34.38-.53-.65-1.04-1.31-1.57-1.96.14-.15.26-.28.38-.42.51.66,1.02,1.34,1.53,2Z"/>
  <path class="cls-1" d="M20.8,99.03c-.45.27-.89.54-1.37.79.16-.62.3-1.25.43-1.87.19-.03.38-.04.56-.05.08.38.27.76.38,1.14Z"/>
  <path class="cls-1" d="M31.73,79.56c.14-.96.24-1.67.35-2.48,1.16.54,1.06,1.34-.35,2.48Z"/>
  <path class="cls-1" d="M33.8,68.85v.19c0,1.48-.15,2.97-.27,4.46-.01.23-.24.49-.58.73-.11-1.48-.14-2.97-.08-4.5.31-.28.62-.58.93-.88Z"/>
</svg>